<?xml version="1.0" encoding="UTF-8" standalone="no"?>
<svg
   width="16"
   height="16"
   fill="currentColor"
   class="bi bi-translate"
   viewBox="0 0 16 16"
   version="1.1"
   id="svg2"
   sodipodi:docname="icon.svg"
   inkscape:version="1.4 (86a8ad7, 2024-10-11)"
   xmlns:inkscape="http://www.inkscape.org/namespaces/inkscape"
   xmlns:sodipodi="http://sodipodi.sourceforge.net/DTD/sodipodi-0.dtd"
   xmlns="http://www.w3.org/2000/svg"
   xmlns:svg="http://www.w3.org/2000/svg">
  <defs
     id="defs2" />
  <sodipodi:namedview
     id="namedview2"
     pagecolor="#ffffff"
     bordercolor="#000000"
     borderopacity="0.25"
     inkscape:showpageshadow="2"
     inkscape:pageopacity="0.0"
     inkscape:pagecheckerboard="0"
     inkscape:deskcolor="#d1d1d1"
     inkscape:zoom="49.453281"
     inkscape:cx="10.039779"
     inkscape:cy="6.5617487"
     inkscape:window-width="2560"
     inkscape:window-height="1358"
     inkscape:window-x="-11"
     inkscape:window-y="2149"
     inkscape:window-maximized="1"
     inkscape:current-layer="svg2" />
  <rect
     style="fill:#a8cbfe;fill-opacity:0.987288;stroke-width:0.977573"
     id="rect4"
     width="9.2612667"
     height="9.1197176"
     x="5.8843417"
     y="6.1472158" />
  <rect
     style="fill:#a8cbfe;fill-opacity:0.987288;stroke-width:0.977573"
     id="rect3"
     width="9.2612667"
     height="9.1197176"
     x="0.93017077"
     y="0.97061306" />
  <path
     d="M 4.545,6.714 4.11,8 H 3 L 4.862,3 H 6.146 L 8,8 H 6.833 L 6.398,6.714 Z M 6.179,5.978 5.5,3.956 H 5.451 L 4.772,5.978 Z"
     id="path1"
     style="fill:#4e81c7"
     sodipodi:nodetypes="cccccccccccccc" />
  <path
     d="M 0,2 C 0,0.8954305 0.8954305,0 2,0 h 7 c 1.104569,0 2,0.8954305 2,2 v 3 h 3 c 1.104569,0 2,0.8954305 2,2 v 7 c 0,1.104569 -0.895431,2 -2,2 H 7 C 5.8954305,16 5,15.104569 5,14 V 11 H 2 C 0.8954305,11 0,10.104569 0,9 Z M 2,1 C 1.4477153,1 1,1.4477153 1,2 v 7 c 0,0.5522847 0.4477153,1 1,1 h 7 c 0.5522847,0 1,-0.4477153 1,-1 V 2 C 10,1.4477153 9.5522847,1 9,1 Z m 7.138,9.995 c 0.1926667,0.300667 0.4026667,0.582667 0.63,0.846 C 9.02,12.416 8.095,12.842 7,13.133 7.178,13.35 7.451,13.768 7.555,14 c 1.125,-0.359 2.08,-0.844 2.886,-1.494 0.777,0.665 1.739,1.165 2.93,1.472 0.133,-0.254 0.414,-0.673 0.629,-0.89 -1.125,-0.253 -2.057,-0.694 -2.82,-1.284 0.681,-0.747 1.222,-1.651 1.621,-2.757 H 14 V 8 h -3 v 1.047 h 0.765 c -0.318,0.844 -0.74,1.546 -1.272,2.13 -0.147037,-0.156457 -0.285569,-0.320693 -0.415,-0.492 -0.2824105,0.18046 -0.6056422,0.287058 -0.94,0.31"
     id="path2"
     sodipodi:nodetypes="sssscsssssscssssssssssssccccccccccccccccc"
     style="fill:#4e81c7;fill-opacity:0.98728812" />
</svg>
