<svg xmlns="http://www.w3.org/2000/svg" viewBox="0 0 512 512" id="languages">
  <path fill="#f66" d="M300.393 368.528A102.054 102.054 0 1 1 456.32 455.21v49.145l-56.735-33.815a102.053 102.053 0 0 1-99.193-102.012Z"></path>
  <path fill="#ff4e4e" d="M402.446 266.474a102.856 102.856 0 0 0-15 1.1 102.065 102.065 0 0 1 38.875 187.636v31.265l30 17.88V455.21a102.059 102.059 0 0 0-53.875-188.736Z"></path>
  <path fill="#63ea86" d="M124.29 144.735A137.09 137.09 0 1 1 333.75 261.177v66.017l-76.213-45.425A137.09 137.09 0 0 1 124.29 144.736Z"></path>
  <path fill="#3ce568" d="M261.38 7.645a138.557 138.557 0 0 0-15 .82 137.1 137.1 0 0 1 57.371 252.712v48.136l30 17.881v-66.017A137.097 137.097 0 0 0 261.38 7.645Z"></path>
  <path fill="#66c1ff" d="M271.5 328.672A132 132 0 1 0 69.816 440.789v63.566l73.383-43.738A132 132 0 0 0 271.5 328.672Z"></path>
  <path fill="#4eb7ff" d="M139.5 196.672a133.362 133.362 0 0 0-15 .853 132 132 0 0 1-11.301 263.092l-43.383 25.858v17.88l73.383-43.738a131.999 131.999 0 0 0-3.699-263.945Z"></path>
  <path fill="#272a33" d="M188.874 344.015a7.467 7.467 0 0 0-1.588-3.432l-40.98-88.569a7.5 7.5 0 0 0-13.613 0l-40.979 88.569a7.467 7.467 0 0 0-1.588 3.432l-15.212 32.878a7.5 7.5 0 0 0 13.613 6.299l14.036-30.337h73.873l14.037 30.337a7.5 7.5 0 1 0 13.613-6.299Zm-79.37-6.16 29.996-64.83 29.996 64.83ZM319.146 89.921h15.35a7.5 7.5 0 0 0 0-15h-45.697a7.5 7.5 0 0 0 0 15h15.347v33.813h-38.055a31.883 31.883 0 0 0-27.04-48.813h-32.299a7.5 7.5 0 0 0 0 15h32.299a16.906 16.906 0 0 1 0 33.813h-32.299a7.5 7.5 0 0 0 0 15h31.756c9.416 0 17.266 7.404 17.502 16.505a16.958 16.958 0 0 1-16.951 17.408q-.35 0-.7.033a54.99 54.99 0 0 1-44.7-16.556 7.5 7.5 0 1 0-10.789 10.42 69.951 69.951 0 0 0 50.43 21.37c2.045 0 4.089-.089 6.121-.269a31.956 31.956 0 0 0 31.583-32.793 31.145 31.145 0 0 0-5.007-16.118h38.15v41.312a7.5 7.5 0 0 0 15 0Zm83.304 169.05a109.307 109.307 0 0 0-61.2 18.681v-12.377a143.793 143.793 0 0 0 64.72-120.535c0-79.733-64.863-144.6-144.59-144.6s-144.59 64.867-144.59 144.6a143.965 143.965 0 0 0 7.239 45.294C54.363 197.756 0 256.98 0 328.67a138.74 138.74 0 0 0 62.316 116.21v59.475a7.5 7.5 0 0 0 11.34 6.442l71.728-42.752a139.526 139.526 0 0 0 130.996-166.31l28.475 16.967a109.574 109.574 0 0 0 92.543 159.262l55.082 32.837a7.5 7.5 0 0 0 11.34-6.442v-45.077a109.56 109.56 0 0 0-61.37-200.313ZM228.675 415.55a123.796 123.796 0 0 1-85.682 37.57 7.502 7.502 0 0 0-3.634 1.055l-62.043 36.98v-50.366a7.498 7.498 0 0 0-3.535-6.366 124.508 124.508 0 1 1 154.894-18.873Zm41.859-134.76a139.74 139.74 0 0 0-130.92-91.617 128.875 128.875 0 0 1-7.824-44.433c0-71.462 58.134-129.6 129.59-129.6s129.59 58.138 129.59 129.6a128.938 128.938 0 0 1-61.185 110.074 7.5 7.5 0 0 0-3.535 6.366v52.81l-7.427-4.426-.014-.01-.018-.01Zm181.822 168.053a7.5 7.5 0 0 0-3.536 6.367v35.947l-45.39-27.059a7.501 7.501 0 0 0-3.634-1.055 94.568 94.568 0 0 1-82.015-136.637l12.13 7.227a7.5 7.5 0 0 0 11.339-6.443v-30.723a94.55 94.55 0 1 1 111.106 152.376Zm-3.522-121.304h-15.588a7.451 7.451 0 0 0-1.749 0h-21.55v-12.601a7.5 7.5 0 0 0-15 0v12.601h-33.9a7.5 7.5 0 0 0 0 15h59.863a115.97 115.97 0 0 1-26.057 34.76 92.969 92.969 0 0 1-12.947-16.66 7.5 7.5 0 0 0-12.814 7.798 108.018 108.018 0 0 0 13.928 18.222 113.67 113.67 0 0 1-22.337 11.86 7.5 7.5 0 1 0 5.525 13.945A128.385 128.385 0 0 0 394.352 397a107.51 107.51 0 0 0 37.51 19.174 7.5 7.5 0 0 0 4.102-14.428 92.647 92.647 0 0 1-29.714-14.528 132.241 132.241 0 0 0 31.173-44.68h11.411a7.5 7.5 0 0 0 0-15Z"></path>
</svg>
